<mxfile host="app.diagrams.net" modified="2023-10-06T05:21:12.071Z" agent="Mozilla/5.0 (Windows NT 10.0; Win64; x64) AppleWebKit/537.36 (KHTML, like Gecko) Chrome/117.0.0.0 Safari/537.36 Edg/117.0.2045.47" version="21.1.8" etag="VCNpx4f39jteDV9qaYzg" type="github">
  <diagram name="PÃ¡gina-1" id="LrKaOsTjqGmme0yuGVoz">
    <mxGraphModel>
      <root>
        <mxCell id="0" />
        <mxCell id="1" parent="0" />
      </root>
    </mxGraphModel>
  </diagram>
</mxfile>
